# xmcd CD database file
#
# Track frame offsets:
#	150
#	14479
#	28830
#	45642
#	60120
#	73486
#	93484
#	106661
#	120051
#	132993
#
# Disc length: 1945 seconds
#
# Revision: 0
# Processed by: cddbd v1.5.1PL0 Copyright (c) Steve Scherf et al.
# Submitted via: CDex 1.40Release
#
DISCID=7d07970a
DTITLE=Caline and Carol - Distante de Você
DYEAR=2003
DGENRE=Country
TTITLE0=Distante de você
TTITLE1=É so me dar um abraço
TTITLE2=Ele não veio
TTITLE3=Estrelas a contar
TTITLE4=Eu de cá você de lá
TTITLE5=Homem de Nazaré
TTITLE6=Fatalidade
TTITLE7=Saudade me fez voltar
TTITLE8=Quando agente perde um grande amor
TTITLE9=Saudade boa de briga
EXTD=YEAR: 2003 ID3G: 2
EXTT0=
EXTT1=
EXTT2=
EXTT3=
EXTT4=
EXTT5=
EXTT6=
EXTT7=
EXTT8=
EXTT9=
PLAYORDER=
